# xmcd CD database file
#
# Track frame offsets:
#	150
#	16000
#	28503
#	41785
#	57768
#	72858
#	88690
#	103330
#	128190
#	139243
#	151053
#	163210
#	175403
#	191688
#
# Disc length: 2757 seconds
#
# Revision: 2
# Processed by: cddbd v1.4PL0 Copyright (c) Steve Scherf et al.
# Submitted via: CDex 1.40Release
#
DISCID=be0ac30e
DTITLE=Aretha Franklin - Aretha's Greatest Hits
DYEAR=1971
DGENRE=Jazz
TTITLE0=Spanish Harlem
TTITLE1=Chain Of Fools
TTITLE2=Don't Play That Song
TTITLE3=I Say A Little Prayer
TTITLE4=Dr. Feelgoed
TTITLE5=Let It Be
TTITLE6=Do Right Woman - Do Right Man
TTITLE7=Bridge Over Troubled Water
TTITLE8=Respect
TTITLE9=Baby, I Love You
TTITLE10=A Natural Woman
TTITLE11=I Never Loved A Man (The Way I Love You)
TTITLE12=You're All I Need To Get By
TTITLE13=Call Me
EXTD=Schlapa YEAR: 1971 ID3G: 8
EXTT0=
EXTT1=
EXTT2=
EXTT3=
EXTT4=
EXTT5=
EXTT6=
EXTT7=
EXTT8=
EXTT9=
EXTT10=
EXTT11=
EXTT12=
EXTT13=
PLAYORDER=
